# xmcd
#
# Track frame offsets:
#	150
#	27216
#	55290
#	86911
#	150006
#
# Disc length: 2528 seconds
#
# Revision: 0
# Processed by: cddbd v1.5.2PL0 Copyright (c) Steve Scherf et al.
# Submitted via: EasyCDDAExtractor 10.0.2.1
#
DISCID=2f09de05
DTITLE=Heaven And Hell - Eulachhalle Winterthur 02-06-07 Master Disc 2
DYEAR=2007
DGENRE=Hard Rock
TTITLE0=Falling Off The Edge Of The World
TTITLE1=Shadow Of The Wind
TTITLE2=Die Young
TTITLE3=Heaven And Hell
TTITLE4=Neon Knights
EXTD=
EXTT0=
EXTT1=
EXTT2=
EXTT3=
EXTT4=
PLAYORDER=
